<?xml version="1.0" standalone="no"?>
<!DOCTYPE svg PUBLIC "-//W3C//DTD SVG 20010904//EN"
 "http://www.w3.org/TR/2001/REC-SVG-20010904/DTD/svg10.dtd">
<svg version="1.0" xmlns="http://www.w3.org/2000/svg"
 width="166.000000pt" height="166.000000pt" viewBox="0 0 166.000000 166.000000"
 preserveAspectRatio="xMidYMid meet">
<metadata>
Created by potrace 1.14, written by Peter Selinger 2001-2017
</metadata>
<g transform="translate(0.000000,166.000000) scale(0.100000,-0.100000)"
fill="#000000" stroke="none">
<path d="M539 1565 c-1 -5 -1 -14 0 -18 1 -4 -7 -4 -16 2 -13 6 -24 5 -37 -5
-10 -7 -23 -11 -27 -8 -5 3 -5 -6 0 -19 9 -22 7 -24 -12 -21 -12 2 -16 2 -9
-2 17 -8 15 -27 -3 -20 -13 5 -14 2 -4 -17 12 -21 11 -21 -6 -7 -10 8 -16 10
-12 3 4 -6 1 -14 -5 -16 -8 -3 -6 -6 5 -6 9 -1 17 -4 17 -8 0 -3 -8 -15 -17
-26 -10 -11 -13 -18 -7 -14 7 4 11 -5 11 -23 0 -16 -4 -27 -8 -25 -4 3 -5 -4
-2 -15 3 -11 9 -18 12 -15 4 2 8 -2 8 -9 0 -8 -7 -12 -15 -8 -11 4 -10 -2 4
-24 17 -26 17 -28 1 -15 -10 8 -20 11 -24 7 -3 -3 -1 -6 6 -6 8 0 11 -6 7 -16
-3 -8 -2 -13 3 -10 5 3 11 -1 14 -9 4 -10 1 -12 -11 -8 -15 6 -15 4 -4 -9 10
-13 11 -26 3 -52 -5 -21 -6 -34 0 -31 5 4 9 -1 9 -10 0 -9 -4 -14 -8 -11 -5 3
-9 -1 -9 -9 0 -8 4 -12 9 -9 4 3 7 -5 5 -18 -1 -13 -11 -25 -22 -29 -13 -3
-19 -12 -17 -25 2 -10 0 -16 -4 -12 -4 5 -15 -6 -25 -22 -11 -17 -24 -30 -29
-30 -6 0 -8 -4 -5 -10 3 -6 -1 -7 -9 -4 -9 3 -13 11 -9 17 3 6 1 7 -6 3 -6 -4
-9 -12 -6 -17 4 -5 2 -9 -4 -9 -6 0 -15 -10 -22 -22 -10 -18 -9 -20 6 -14 14
5 16 4 6 -8 -9 -11 3 -28 65 -90 52 -51 74 -81 70 -91 -3 -9 -2 -14 3 -11 12
8 22 -20 15 -39 -4 -8 -11 -15 -17 -15 -6 0 -2 -7 9 -15 19 -15 19 -15 -1 -9
-16 6 -18 5 -7 -7 6 -7 12 -17 12 -22 0 -4 -6 -5 -12 -1 -10 6 -10 4 0 -7 14
-15 16 -33 3 -25 -11 7 -8 -21 4 -31 4 -5 5 -1 0 7 -5 8 -4 12 0 7 14 -12 14
-48 0 -37 -7 6 -11 3 -11 -10 0 -10 3 -17 7 -14 4 2 9 -3 12 -11 4 -10 1 -12
-11 -8 -14 5 -15 3 -4 -8 6 -7 12 -17 12 -22 0 -4 -6 -5 -12 -1 -10 6 -10 4 0
-7 13 -14 17 -33 4 -25 -4 2 -8 -4 -8 -14 0 -10 3 -17 7 -14 4 2 6 -12 4 -31
-2 -22 1 -35 8 -35 7 0 6 -4 -3 -10 -10 -6 -11 -10 -2 -10 6 0 12 -8 12 -18 0
-22 69 -93 96 -100 11 -3 69 -6 129 -6 l110 -1 2 81 c1 76 0 81 -18 77 -11 -3
-19 0 -19 7 0 9 -4 9 -17 -1 -9 -8 -14 -9 -10 -3 4 7 0 14 -8 17 -10 4 -12 1
-9 -11 5 -14 3 -13 -10 2 -14 18 -16 18 -16 3 0 -15 -4 -14 -27 7 l-26 25 -2
178 c-1 98 -2 189 -3 202 -2 23 -92 121 -112 121 -6 0 -10 7 -10 15 0 8 4 15
8 15 11 0 112 94 113 106 1 5 3 89 4 187 2 150 5 181 19 195 15 15 31 17 133
22 8 0 12 25 12 80 0 74 -1 80 -20 80 -11 0 -18 4 -15 8 3 5 -1 9 -9 9 -8 0
-11 -5 -8 -11 3 -6 0 -5 -8 2 -15 14 -33 17 -25 4 3 -5 -1 -9 -9 -9 -8 0 -12
4 -10 7 7 11 -47 9 -69 -2 -13 -7 -21 -6 -27 3 -7 11 -9 11 -9 -1 0 -13 -1
-13 -10 0 -5 8 -10 11 -11 5z m-25 -23 c3 -5 -1 -9 -9 -9 -8 0 -12 4 -9 9 3 4
7 8 9 8 2 0 6 -4 9 -8z m-29 -22 c3 -5 1 -10 -4 -10 -6 0 -11 5 -11 10 0 6 2
10 4 10 3 0 8 -4 11 -10z"/>
<path d="M859 1554 c-7 -8 -6 -15 2 -20 8 -5 9 -3 4 6 -6 9 -4 11 5 5 10 -6 9
-11 -5 -22 -11 -7 -14 -13 -7 -13 11 0 9 -30 -4 -53 -5 -7 0 -6 11 3 11 9 16
10 11 3 -13 -23 -15 -52 -3 -61 7 -6 37 -11 67 -13 62 -2 94 -22 84 -52 -3
-11 -2 -17 3 -14 5 4 10 0 10 -8 0 -8 -4 -12 -9 -9 -4 3 -8 -2 -8 -11 0 -9 4
-14 9 -11 10 6 8 -49 -3 -83 -5 -13 -4 -21 0 -18 5 3 9 -8 9 -24 1 -20 -3 -28
-12 -25 -7 3 -10 -1 -6 -9 3 -8 9 -13 13 -10 10 6 7 -21 -3 -31 -4 -4 -7 -14
-7 -23 0 -14 2 -14 10 -1 5 8 10 10 10 4 0 -5 -5 -15 -12 -22 -9 -9 -9 -12 -1
-12 7 0 10 -9 8 -21 -3 -14 11 -34 48 -70 28 -27 55 -49 59 -49 4 0 7 -11 6
-24 -1 -14 -6 -22 -10 -20 -5 3 -5 10 -1 17 3 6 -8 1 -26 -12 -27 -20 -30 -25
-19 -39 12 -14 10 -14 -12 -2 -23 12 -24 12 -11 -4 12 -14 12 -16 -4 -10 -12
5 -16 4 -11 -4 3 -6 2 -13 -4 -17 -5 -3 -10 -1 -10 6 0 7 -3 9 -6 6 -4 -4 -1
-14 7 -24 12 -14 12 -16 -1 -11 -11 4 -16 -1 -17 -13 -1 -11 2 -17 6 -15 9 6
7 -22 -4 -48 -5 -12 -3 -21 6 -27 8 -5 9 -9 3 -9 -17 0 -24 -24 -12 -41 8 -11
9 -11 4 3 -3 10 -1 20 4 23 9 6 7 -27 -5 -64 -4 -13 -3 -21 1 -18 5 3 9 -8 9
-24 1 -20 -3 -28 -12 -25 -7 3 -10 -1 -6 -9 3 -8 9 -13 13 -10 9 6 7 -11 -5
-39 -5 -11 -3 -21 5 -26 7 -4 8 -9 2 -11 -5 -2 -13 -20 -16 -39 -7 -35 -7 -35
8 -10 17 28 22 19 5 -11 -9 -17 -13 -18 -27 -7 -13 11 -15 11 -9 -4 3 -10 3
-17 -1 -17 -4 1 -9 0 -12 -1 -16 -7 -61 -6 -66 2 -3 4 -10 8 -15 8 -6 0 -7 -5
-3 -11 5 -8 1 -8 -14 0 -16 9 -21 7 -25 -9 -3 -12 -1 -18 5 -14 6 4 8 -2 3
-16 -6 -17 -4 -21 6 -15 8 5 6 -1 -3 -12 -10 -11 -18 -24 -18 -29 0 -5 4 -3 9
4 6 10 10 7 13 -12 3 -14 2 -23 -2 -21 -5 3 -11 -2 -14 -11 -3 -8 -2 -12 4 -9
6 3 13 -1 16 -10 5 -13 24 -15 110 -14 122 1 176 21 209 79 20 35 25 117 25
429 0 53 0 53 75 126 41 41 75 82 75 92 0 11 -34 52 -75 92 -41 41 -75 81 -75
90 -1 9 -1 93 -2 186 0 94 -4 184 -9 202 -13 43 -70 102 -108 109 -17 4 -29
10 -26 14 5 9 -27 6 -43 -4 -7 -4 -19 -3 -26 3 -9 7 -16 7 -24 -1 -9 -9 -12
-9 -12 0 0 7 -5 12 -11 12 -5 0 -7 -6 -3 -12 6 -10 4 -10 -7 0 -15 14 -33 17
-25 4 3 -5 -1 -9 -9 -9 -8 0 -12 4 -9 8 7 13 -36 6 -47 -7z m266 -723 c-3 -6
-14 -11 -23 -11 -13 0 -13 2 4 14 21 15 30 14 19 -3z"/>
<path d="M1016 1262 c-2 -4 -1 -14 4 -22 7 -11 9 -9 7 8 -1 24 -3 26 -11 14z"/>
<path d="M326 975 c-9 -14 -13 -25 -8 -25 5 0 14 11 20 25 6 14 10 25 8 25 -2
0 -11 -11 -20 -25z"/>
<path d="M405 660 c3 -5 8 -10 11 -10 2 0 4 5 4 10 0 6 -5 10 -11 10 -5 0 -7
-4 -4 -10z"/>
<path d="M926 322 c-3 -5 1 -9 9 -9 8 0 12 4 9 9 -3 4 -7 8 -9 8 -2 0 -6 -4
-9 -8z"/>
</g>
</svg>
